<?xml version="1.0" standalone="no"?>
<!DOCTYPE svg PUBLIC "-//W3C//DTD SVG 1.1//EN" "http://www.w3.org/Graphics/SVG/1.1/DTD/svg11.dtd" >
<svg xmlns="http://www.w3.org/2000/svg" xmlns:xlink="http://www.w3.org/1999/xlink" version="1.1">
<metadata>
Created by FontForge 20170924 at Wed Jan  6 21:26:02 2021
 By root
</metadata>
<defs>
<font id="PixoReto-Regular" horiz-adv-x="430" >
  <font-face 
    font-family="Pixo Reto"
    font-weight="400"
    font-stretch="normal"
    units-per-em="1000"
    panose-1="2 0 5 3 0 0 0 0 0 0"
    ascent="800"
    descent="-200"
    x-height="938"
    bbox="51 -146 540 1151"
    underline-thickness="50"
    underline-position="-150"
    unicode-range="U+0020-00FA"
  />
    <missing-glyph />
    <glyph glyph-name="space" unicode=" " horiz-adv-x="250" 
 />
    <glyph glyph-name="exclam" unicode="!" horiz-adv-x="286" 
d="M60 172q5 5 13 5q21 0 44 -28l23 -27l24 27q22 27 37 27q11 0 17 -13q3 -6 3 -11q0 -11 -13 -28q-18 -25 -24 -29q-5 -3 -5 -8q0 -12 26 -43q25 -29 25 -36q0 -5 -7 -12t-17 -7q-18 0 -40 22l-22 23l-21 -23q-20 -21 -28 -21q-5 0 -16 11q-8 10 -8 14q0 1 7 17
q3 4 6.5 10t8 13t5.5 9q5 8 5 12q0 9 -21 34q-26 34 -26 51q0 7 4 11zM120 698q9 10 20 10q12 0 21 -10q7 -7 9.5 -51t4.5 -191q2 -126 2 -145q0 -48 -2.5 -70t-7 -27t-14.5 -5q-13 0 -19.5 9.5t-11 46.5t-6.5 94t-3 169v68q0 95 7 102z" />
    <glyph glyph-name="quotedbl" unicode="&#x22;" horiz-adv-x="312" 
d="M67 754q14 6 18 6q7 0 19 -16q20 -26 35 -134q4 -36 4 -39q0 -15 -8 -28q-11 -17 -20 -17q-19 0 -25 63q-2 35 -18 78q-18 49 -18 66q0 16 13 21zM184 779q7 7 19 7q19 0 28 -14q7 -12 18.5 -80t11.5 -101q0 -51 -26 -51q-14 0 -19.5 12t-5.5 46q0 40 -17 100
q-16 54 -16 65q0 9 7 16z" />
    <glyph glyph-name="quotesingle" unicode="'" horiz-adv-x="160" 
d="M66 685q4 1 10 1q18 0 24.5 -23.5t6.5 -88.5q0 -59 -6.5 -81.5t-23.5 -22.5h-5q-10 1 -12.5 14.5t-5.5 84.5q-2 64 -2 80v9.5t0.5 7.5t0.5 5v3q5 10 13 11z" />
    <glyph glyph-name="comma" unicode="," horiz-adv-x="225" 
d="M128 98q6 8 16 8q13 0 21 -10q6 -7 6 -31q0 -56 -21 -108q-17 -43 -37.5 -73t-32.5 -30h-2q-22 3 -22 22q0 10 8 24q24 43 34.5 70t15.5 65q7 55 14 63z" />
    <glyph glyph-name="period" unicode="." horiz-adv-x="285" 
d="M69 55q8 4 10 4q11 0 34 -26l24 -26l29 26q26 25 40 25q9 0 18 -12q7 -11 7 -18q0 -15 -29 -43l-26 -24l26 -27q26 -26 26 -44q0 -10 -7 -17t-15 -7q-15 0 -38 26l-24 26l-26 -23q-25 -22 -41 -22q-9 0 -16 7t-7 17q0 15 23 40l23 24l-23 31q-20 26 -20 42q0 14 12 21z
" />
    <glyph glyph-name="zero" unicode="0" horiz-adv-x="447" 
d="M240 625q-24 12 -27 12q-22 -1 -53 -43.5t-46 -92.5q-12 -39 -12 -129q0 -86 12 -130q20 -74 52 -117t65 -43q19 0 36 14q34 29 53 90t19 138q0 52 -9 106q-11 68 -36.5 123t-53.5 72zM168 700q19 8 37 8q52 0 97 -50q43 -48 66 -126t23 -166q0 -135 -50 -234
q-25 -48 -49.5 -68t-58.5 -20q-61 0 -108 69q-71 106 -71 288q0 112 31.5 194t82.5 105z" />
    <glyph glyph-name="one" unicode="1" horiz-adv-x="268" 
d="M133 889q0 12 15.5 26t30.5 14q13 0 19 -12q7 -14 7 -349q0 -342 7 -459q4 -60 4 -94q0 -31 -7 -38q-8 -8 -14 -8q-14 0 -19 47q-10 103 -27 544q-4 90 -7 116l-3 29l-17 -31q-20 -36 -42 -36q-8 0 -15 6q-9 8 -9 20q0 13 12 37q12 23 38.5 100t26.5 88z" />
    <glyph glyph-name="two" unicode="2" horiz-adv-x="419" 
d="M186 904q12 2 18 2q27 0 69 -21q42 -23 67 -76.5t25 -118.5q0 -34 -7 -65q-17 -78 -109 -221q-61 -93 -99 -198q-41 -113 -41 -152q0 -4 1 -5q5 -3 27 14q27 18 72 18q33 0 53 -12q14 -9 18 -9q1 0 1 28v23l-1 49h38l11 -68q9 -58 23 -102q8 -26 8 -32q0 -5 -5 -12
q-7 -9 -14 -9q-11 0 -36 31q-31 35 -59 52q-27 19 -42 19q-4 0 -14 -2q-22 -4 -38 -15t-44 -43q-30 -33 -42 -33t-12 16q0 2 0.5 7.5t0.5 9.5q6 90 60 257q35 106 75 172q65 107 90 169.5t25 118.5q0 58 -28.5 97t-69.5 39q-22 0 -48 -26l-26 -25l4 -55q2 -18 2 -39
q0 -18 -8 -26q-10 -10 -22 -10q-14 0 -26 12q-19 19 -19 83q0 24 5 44q11 37 44 69.5t73 44.5z" />
    <glyph glyph-name="three" unicode="3" horiz-adv-x="454" 
d="M62 842q6 7 17 7q17 0 108 -21l78 -17l59 15q48 11 62 11q4 0 5 -1q7 -4 7 -13q0 -22 -68 -115l-68 -93l47 -4q34 -2 42 -5.5t14 -16.5q6 -14 6 -23q0 -15 -31 -162q-32 -154 -49 -247q-30 -167 -35 -182q-7 -28 -23 -28q-5 0 -10 3q-7 4 -60 153q-76 219 -76 230
q0 3 1 4.5t3.5 3t3.5 2.5q13 13 22 6q10 -7 54 -137q53 -157 58 -157q1 1 1 2q0 6 13 78q16 94 35 227q20 140 27 170q4 13 -6 18q-2 1 -10 1q-48 0 -102 -28q-23 -13 -31 -13q-4 0 -15 7q-15 9 -15 22q0 17 27 43q22 22 74.5 86t59.5 79q2 4 2 6q0 7 -52 10q-66 6 -70 8
q-15 4 -21 -12q-8 -23 -24 -23q-21 0 -43.5 31t-22.5 57q0 10 6 18z" />
    <glyph glyph-name="four" unicode="4" horiz-adv-x="482" 
d="M161 896q7 9 15 9q9 0 16 -12t7 -31q0 -35 -14.5 -126.5t-25.5 -125.5q-9 -28 -9 -44q0 -5 1 -6q6 -6 38 -15l32 -9l2 139q0 59 1 86t4 45.5t7.5 22t14.5 3.5q19 0 23 -26t5 -141l2 -147l19 -5q37 -10 68 -17q58 -13 58 -31q0 -7 -7 -14t-17 -7q-13 0 -48 8
q-55 11 -64 14h-1q-6 0 -8.5 -36t-5.5 -167q-5 -208 -9 -245q-4 -27 -7 -33t-14 -6h-16q0 84 2 250t2 250l-63 12q-60 11 -77 11h-2q-15 -2 -25 6q-9 9 -9 28q0 23 12 35q13 13 23 33q8 16 30 110.5t29 140.5q5 31 11 41z" />
    <glyph glyph-name="five" unicode="5" horiz-adv-x="439" 
d="M62 828q10 16 23 16q11 0 31 -14q24 -18 52 -30l33 -15l53 24q51 24 74 26h5q9 0 12 -4t5 -16v-7q0 -15 -27 -34q-75 -51 -123 -51q-30 0 -55 18t-35 18q-5 0 -5 -6q0 -4 1 -7q3 -8 11 -89l10 -77q3 0 38 31q56 49 91 49q36 0 76 -41q29 -29 40 -63.5t11 -96.5
q0 -30 -1 -47q-3 -82 -37 -233q-53 -236 -68 -259q-6 -7 -14 -7q-27 0 -61 53q-35 57 -78.5 141t-43.5 94q0 11 12 11q14 0 27 -19q0 -1 13.5 -24.5t31 -55t35.5 -63.5t32 -54t16 -22q5 0 26 78.5t40 172.5q18 87 18 140q0 32 -1 52q-2 95 -17 124q-11 21 -28.5 38.5
t-28.5 18.5q-11 0 -52 -34t-63 -62q-29 -39 -46 -39q-9 0 -15 8q-7 7 -14 108q-13 185 -13 213q0 24 9 36z" />
    <glyph glyph-name="six" unicode="6" horiz-adv-x="424" 
d="M286 428q-23 22 -49 22q-44 0 -106 -68l-28 -30v-66q0 -68 19 -135q21 -73 56.5 -142.5t51.5 -69.5l1 1h2q8 5 27.5 47.5t32.5 82.5q37 114 37 211q0 105 -44 147zM141 785q13 13 23 17t30 4q48 0 74 -42.5t36 -133.5q4 -35 4 -56q0 -16 -3.5 -21.5t-13.5 -5.5
q-13 0 -19.5 17t-13.5 67q-6 47 -12.5 67t-20.5 35q-13 14 -28 14q-39 0 -58 -84q-7 -33 -14.5 -96.5t-8.5 -97.5q0 -17 3 -17t12 6q53 40 98 40q41 0 79 -33q30 -26 43.5 -64.5t15.5 -110.5q1 -18 1 -46q0 -42 -17 -106q-40 -152 -83 -209q-22 -31 -40 -31q-22 0 -67 65
q-49 74 -82 178l-25 78l1 117q4 366 86 449z" />
    <glyph glyph-name="seven" unicode="7" horiz-adv-x="461" 
d="M59 825q8 13 19 13t31 -11q94 -53 127 -53q25 0 62 14.5t57 31.5q21 18 32 18q10 0 16 -12q2 -6 2 -9q0 -10 -19 -54q-20 -43 -53 -138.5t-43 -137.5l-9 -37l37 -4q65 -8 65 -27q0 -13 -9 -16.5t-48 -6.5q-54 -5 -57 -8q-4 -4 -16.5 -64t-20.5 -115q-9 -58 -19 -178
l-8 -111h-16q-10 0 -13 5t-5 25v11q0 46 10 180.5t17 187.5q6 37 6 56q0 6 -37 6q-53 0 -53 28q0 7 3 14q5 11 13 13.5t40 2.5q46 0 48 9q24 98 57 183q23 60 23 71q0 6 -5 6t-14 -3q-16 -5 -48 -5q-37 0 -51 7q-8 3 -13 3q-7 0 -17 -13q-14 -18 -26 -18q-21 0 -51 72
q-17 40 -17 52q0 6 3 12z" />
    <glyph glyph-name="eight" unicode="8" horiz-adv-x="457" 
d="M245 465q-22 49 -27 49q-7 0 -89 -405q-20 -98 -20 -105q0 -1 1 -1q2 0 8.5 1.5t19.5 5t24 5.5q54 14 91 14q39 0 67 -14q24 -12 30 -12h1q1 1 1 4q0 18 -8 63q-2 13 -9 62t-10 71q-19 133 -80 262zM205 737l-54 4l13 -21q2 -3 28 -45q14 -25 18 -25t28 38t24 43
q0 2 -57 6zM349 818q6 6 9 6.5t15 -5.5q13 -9 13 -14q0 -8 -41 -56q-37 -46 -69.5 -97t-32.5 -63q0 -9 30 -77q68 -151 89 -270q39 -217 39 -289q0 -12 -2 -16q-6 -12 -13 -12q-10 0 -41 24q-47 36 -96 36q-17 0 -38 -3q-72 -10 -109 -41q-18 -15 -30 -15q-16 0 -16 23
q0 28 36 213q40 204 60 297q23 115 23 121q0 18 -88 171q-19 33 -19 50q0 13 10 16h4q18 0 53 -10q44 -12 69 -16q1 0 4 -0.5t5 -0.5q27 0 78 10.5t58 17.5z" />
    <glyph glyph-name="nine" unicode="9" horiz-adv-x="367" 
d="M190 765q-9 8 -21 8q-22 0 -36 -37.5t-14 -97.5q0 -4 0.5 -12.5t0.5 -13.5q3 -50 24 -132.5t31 -86.5h1q8 0 32.5 32.5t40.5 62.5q15 30 15 69q0 49 -22 109q-28 80 -52 99zM124 817q26 20 42 20q11 0 38 -11q29 -13 49.5 -46.5t39.5 -99.5q20 -69 20 -126
q0 -58 -17 -202t-29 -186q-16 -68 -26 -136q-16 -108 -24 -120q-5 -6 -11 -6t-24 8q-13 5 -23.5 22t-40.5 77q-43 88 -43 99q0 8 13 8q16 0 28 -15q16 -21 38 -64q26 -50 30 -50q3 0 8 31q4 31 27 121q24 91 27 165l3 75l-33 -34q-32 -33 -48 -33h-6q-14 2 -21.5 9.5
t-21.5 36.5q-18 37 -37.5 110.5t-24.5 120.5q-2 20 -2 34q0 90 26 142q14 28 43 50z" />
    <glyph glyph-name="colon" unicode=":" horiz-adv-x="282" 
d="M174 162q23 27 34 27q6 0 13 -7t7 -14q0 -12 -22 -43l-23 -31l20 -15q19 -14 19 -28q0 -9 -10 -18q-10 -8 -21 0q-24 18 -35 18q-9 0 -28 -16q-21 -20 -33 -20q-7 0 -14 7t-7 16q0 14 22 35l22 22l-16 21q-15 20 -15 34q0 16 18 19h5q15 0 26 -16l15 -18zM150 536
q23 23 36 23q8 0 15 -7q8 -8 8 -15q0 -12 -22 -37l-24 -25l13 -19q10 -14 24 -26q9 -8 9 -19t-8 -19q-7 -7 -14 -7q-11 0 -35 25l-23 26l-21 -20q-19 -17 -31 -17q-11 0 -19 12q-3 5 -3 9q0 7 28 46q2 4 2 5q0 6 -14 22q-17 17 -17 30q0 9 7 16t16 7q13 0 30 -17l18 -17z
" />
    <glyph glyph-name="semicolon" unicode=";" horiz-adv-x="287" 
d="M139 124q6 8 15 8t15.5 -7t6.5 -18q0 -15 -32.5 -87t-47.5 -92q-12 -15 -24 -15q-6 0 -11.5 4.5t-5.5 11.5q0 16 28 74q23 47 41 89q10 23 15 32zM173 441q24 28 44 28q14 0 14 -15q0 -13 -13 -32q-18 -25 -24 -29q-5 -3 -5 -8q0 -8 18.5 -30.5t18.5 -29.5t-6 -11.5
t-12 -4.5q-12 0 -31 16l-25 20l-12 -13q-19 -22 -35 -22q-7 0 -11 4q-8 5 -8 15q0 12 17 31l17 18l-13 14q-31 34 -31 51q0 6 3 9q8 9 16 9q13 0 33 -23l22 -24z" />
    <glyph glyph-name="question" unicode="?" horiz-adv-x="446" 
d="M263 310q21 22 39 22q12 0 15 -10q2 -6 2 -9q0 -9 -26 -41l-19 -24l17 -20q16 -19 16 -29q0 -7 -7 -14q-8 -8 -17 -8q-13 0 -24 13q-9 9 -12 9q-4 0 -18 -14q-13 -13 -22 -13q-5 0 -8 2q-13 8 -13 24q0 13 11 29l13 19l-19 22q-18 19 -18 31q0 8 9 17t15 9q8 0 26 -19
l18 -19zM193 837q11 2 36 2q55 0 83 -15q27 -14 53.5 -49.5t26.5 -57.5q0 -46 -62 -80q-37 -22 -56 -48l-19 -26l2 -113q1 -27 1 -63q0 -51 -10 -57q-11 -7 -22 0q-8 5 -10 27t-2 103q0 85 2 107.5t12 40.5q22 42 71 67q39 19 39 36q0 9 -4 17q-9 19 -27 34q-21 15 -69 15
q-36 0 -69.5 -8.5t-46.5 -22.5q-7 -7 -7 -13q0 -7 17 -38q16 -30 16 -44q0 -16 -17 -22q-2 -1 -6 -1q-21 0 -45.5 36.5t-24.5 70.5q0 35 39 64t99 38z" />
    <glyph glyph-name="a" unicode="a" horiz-adv-x="475" 
d="M268 583q-23 133 -28 133q-1 0 -1 -4q0 -1 -2.5 -15.5t-6.5 -43t-8 -51.5q-18 -103 -20 -126q-1 -4 -1 -12q0 -13 8 -21q11 -12 18 -12q9 0 34 21l25 21zM220 1002q11 11 22 11q12 0 21 -12.5t11 -34.5q44 -344 51 -392l8 -55l17 14q16 13 27 13q9 0 16 -7t7 -15
q0 -15 -29 -40l-31 -26l8 -39q2 -9 7 -37.5t14 -77t15 -81.5q35 -185 35 -222q0 -20 -8 -23q-10 -5 -18 3q-7 7 -25 109q-22 123 -45 225t-29 102t-29 -23q-21 -22 -35 -22q-10 0 -21 12q-13 13 -15 13q-7 0 -12 -28.5t-18 -136.5q-22 -183 -27.5 -214t-14.5 -36
q-10 -4 -11 -4q-11 0 -11 31q0 33 12 140q18 166 25 218l9 63l-45 26q-44 26 -44 42q0 8 10 17q6 4 10 4q7 0 36 -15q28 -15 36 -15h1q2 2 20 135q7 57 14.5 105.5t11.5 81.5t8 95q4 84 16 96z" />
    <glyph glyph-name="b" unicode="b" horiz-adv-x="476" 
d="M230 550q-46 35 -49 35q-10 0 -36 -58q-19 -44 -27 -55t-8 -106q0 -100 5 -215l4 -114l30 55q27 50 75 137q38 67 81.5 152t43.5 92q0 6 -38 24q-38 19 -81 53zM186 767q-12 0 -38 24q-20 17 -25 17q-1 0 -3 -3q-7 -21 -7 -135q0 -49 3 -49t18.5 24t33 53t18.5 30
q16 24 16 31q0 8 -16 8zM65 1027q11 11 20 11q21 0 37 -62q23 -94 66 -135q15 -15 28 -15q4 0 20 2q34 6 72 28q37 19 47 19q6 0 12 -3q15 -7 15 -27q0 -12 -5.5 -18.5t-25.5 -19.5q-38 -23 -55 -40t-50 -63l-41 -57l35 -31q83 -75 140 -86q24 -5 31.5 -9t7.5 -16
q0 -22 -107 -210q-125 -220 -140 -249q-21 -39 -31.5 -53t-20.5 -14q-8 0 -20 6l-22 10l-4 67q-20 366 -21 684v115q0 105 2 131.5t10 34.5z" />
    <glyph glyph-name="c" unicode="c" horiz-adv-x="472" 
d="M198 1032q8 8 17 8q20 0 57 -47q44 -54 79 -91q41 -43 41 -49q0 -5 -12 -21q-9 -11 -20 -11q-22 0 -78 60l-51 56l-24 -45q-25 -43 -54 -81l-28 -38l13 -92q1 -5 30 -203q13 -88 40 -235.5t34 -165.5q5 -14 9 -2v1q14 45 59 357q35 243 49 270q8 12 23 12q11 0 23 -9
t12 -17q0 -12 -57 -286q-59 -287 -69 -339q-10 -56 -17 -71q-13 -20 -36 -20q-5 0 -7 1q-15 7 -46 164q-13 65 -36 159q-31 126 -72 363q-14 80 -20 108q-1 3 -1 9q0 14 22 40q38 47 75 111t37 84q0 12 8 20z" />
    <glyph glyph-name="d" unicode="d" horiz-adv-x="471" 
d="M158 857q-35 33 -37 33q-3 0 -3 -380q0 -377 4 -377q10 0 87 303q51 203 96 292l21 39l-28 7q-76 21 -140 83zM69 1018q13 9 21 9t54 -59q59 -74 101.5 -102.5t102.5 -32.5q68 -4 68 -33q0 -11 -30 -59q-43 -69 -81 -173t-123 -384q-37 -122 -51 -158.5t-24 -36.5h-1
q-5 0 -17 10q-9 7 -11.5 39.5t-5.5 188.5q-3 165 -12 417q-6 136 -6 252v29q1 55 4 71t11 22z" />
    <glyph glyph-name="e" unicode="e" horiz-adv-x="465" 
d="M202 1010q10 10 18 10q17 0 62 -59q47 -62 75 -90q30 -28 30 -47q0 -9 -8 -17q-7 -7 -14 -7q-18 0 -76 59l-57 58l-18 -34q-21 -39 -37 -63q-14 -22 -14 -27t3 -6q4 -3 86 -9q79 -6 96 -13q18 -7 18 -24q0 -14 -13 -21q-7 -5 -40 -5q-29 0 -94 5t-76 5q-8 0 -9 -1t-1 -6
q0 -17 6 -50q40 -295 73 -455q32 -160 35 -165q1 -2 3 0t3 6q5 15 26 134.5t36 215.5q37 258 53 277q9 9 25 7q18 -2 18 -26q0 -23 -26 -156q-40 -198 -57 -287v-1v-1l-1 -1v-1v-1v-1v-2q-42 -218 -53 -241q-8 -14 -24 -16h-3h-5q-10 0 -14 4.5t-9 20.5q-10 28 -28 123
q-11 55 -35.5 169.5t-43 207.5t-31.5 173q-13 79 -19 85q-5 5 -5 11q0 12 38 62q32 42 64.5 101t32.5 75t10 24z" />
    <glyph glyph-name="f" unicode="f" horiz-adv-x="377" 
d="M60 981q3 4 95 4q151 0 161 -7q7 -5 7 -19q0 -22 -19.5 -27.5t-93.5 -6.5l-91 -2l-2 -83v-35q0 -34 2 -34q1 0 4 6q8 22 15 29t23 7q19 0 29 -17.5t23 -76.5q18 -82 25 -82q1 0 1 4q1 26 11.5 86t14.5 64q7 9 22 9q13 0 18.5 -5t5.5 -24q0 -31 -19 -148l-25 -158h-19
q-13 0 -19 10.5t-26 68.5q-24 68 -32 101q-3 15 -6 15q-6 0 -26 -91q-18 -77 -25 -85q-4 -4 -4 -71q0 -59 3 -177q1 -52 2.5 -118.5t2.5 -100.5t1 -38q0 -12 -6 -20.5t-14 -8.5q-6 0 -12 6q-10 10 -17 247q-5 228 -13 373q-4 112 -4 202q0 191 7 203z" />
    <glyph glyph-name="g" unicode="g" horiz-adv-x="484" 
d="M199 986q9 9 17 9q19 0 65 -60q44 -58 75 -89q30 -30 30 -40q0 -9 -9 -20.5t-16 -11.5q-17 0 -72 56.5t-58 56.5h-1q-5 -2 -26 -41q-16 -32 -50 -78l-31 -42l7 -56q10 -58 22 -162q22 -163 61 -348q29 -138 33 -138l1 1q5 5 31 145.5t44 261.5q23 156 32 198q6 28 6 31
q0 4 -34 4q-27 0 -80.5 11.5t-75.5 21.5q-22 11 -22 26q0 9 10 21l13 13l51 -15q53 -16 121 -17q49 0 62 -2t19 -12q5 -6 5 -15q0 -12 -8 -36q-32 -110 -100 -486q-25 -143 -37 -187.5t-26 -53.5q-10 -7 -18 -7q-14 0 -25 35.5t-33 147.5q-2 9 -45 221.5t-56 288.5
q-15 88 -20 93t-5 12q0 16 41 69q32 43 63 100t31 74q0 12 8 20z" />
    <glyph glyph-name="h" unicode="h" horiz-adv-x="504" 
d="M142 962q12 12 19 12q8 0 21 -13q5 -5 7.5 -9.5t4 -17t1.5 -36.5q0 -37 -3 -127q-6 -195 -9 -219l-3 -44q30 -30 58 -61q28 29 84 89l4 201q5 203 11 213q7 12 25 12q19 0 25 -9.5t6 -48.5q0 -29 -5 -134q-5 -108 -5 -152q0 -22 1 -23q5 -3 18 3q7 4 16 4q12 0 20.5 -7
t8.5 -19q0 -17 -30 -35l-29 -17l4 -201q4 -225 8 -281q2 -50 2 -54q0 -24 -9 -29q-8 -2 -10 -2q-13 0 -18 43.5t-12 208.5q-11 244 -13 249q-3 10 -9 10q-9 0 -47 -38q-39 -39 -47 -39q-9 0 -30 23l-22 23l-4 -22q-1 -4 -1 -67q0 -32 0.5 -122t0.5 -133q0 -110 -2 -120
q-4 -19 -19 -16q-16 2 -19.5 46t-4.5 235q0 226 -4 240q-3 12 -39 42q-35 29 -35 46q0 26 26 26q4 0 25 -17l20 -17v196q0 139 2 169t11 39z" />
    <glyph glyph-name="i" unicode="i" horiz-adv-x="279" 
d="M148 868q-9 9 -10 9t-10 -9q-5 -6 -3 -8t13 -2t13 2t-3 8zM71 1012q8 8 18 8q17 0 36 -19l18 -20l21 17q20 15 31 15q10 0 20 -10t10 -22q0 -16 -16 -32q-15 -15 -15 -23t11 -19q17 -17 17 -34q0 -12 -7.5 -20t-21.5 -8h-20v-105q-5 -491 -8.5 -633t-11.5 -146
q-8 -5 -13 -5q-12 0 -15 25t-3 96v122q0 131 -7 349t-7 228l-1 69h-18q-32 0 -32 27q0 19 19 38l20 20l-17 21q-16 19 -16 40q0 13 8 21z" />
    <glyph glyph-name="j" unicode="j" horiz-adv-x="563" 
d="M432 919q5 24 8 35t13 22.5t26 11.5q28 0 28 -26q0 -8 -3 -17q-18 -48 -20 -128q0 -36 -2.5 -45t-12.5 -13q-6 -3 -11 -3q-10 0 -37 17q-33 20 -39 20q-14 0 -14 -439v-79v-138q0 -63 -0.5 -97.5t-1.5 -54.5t-3 -26t-5 -7q-2 -1 -5 -1q-10 0 -24.5 8.5t-19.5 17.5
q-8 14 -46 121t-56 167q-23 77 -89 208q-61 122 -61 148q0 10 6 13q6 4 33 68q17 39 27.5 54.5t21.5 15.5q6 0 16 -5q11 -6 11 -20q0 -22 -31 -85l-27 -56l24 -54q80 -180 117 -304q14 -52 37.5 -115t30.5 -70h1q5 0 5 93q0 98 -6 234q-8 203 -9 299q-2 109 -4 134.5
t-10 31.5q-11 8 -15 8q-6 0 -6 -13q0 -3 2 -23q1 -7 1 -19q0 -33 -21 -33q-6 0 -15 3q-12 4 -17 16.5t-17 68.5q-16 69 -21 84q-3 4 3 20q5 14 17 14q22 0 107 -62q85 -63 93 -66h2q3 0 6 4.5t5 12.5t3 16t2.5 18t2.5 15z" />
    <glyph glyph-name="k" unicode="k" horiz-adv-x="483" 
d="M71 970q18 5 27 5q20 0 25.5 -27t7.5 -119l3 -123l35 60q35 64 65 126q29 64 35.5 73.5t19.5 9.5q14 0 22 -8.5t8 -22.5q0 -13 -30.5 -80t-56.5 -109q-23 -37 -23 -42q0 -4 30 -4q20 0 29 -4t25 -20q46 -46 58 -181q7 -82 39 -266q37 -213 37 -262q0 -17 -4 -20
q-8 -4 -11 -4q-21 0 -35 105q-8 61 -44 270t-44 243q-20 80 -51 80q-17 0 -64.5 -47t-51.5 -69q-4 -19 -4 -70q0 -57 6 -135q3 -39 3 -91q0 -93 -7 -182t-16 -95q-11 -7 -21 1q-7 6 -9 37t-2 135q0 189 -10 481q-8 214 -8 306q0 27 1 29q6 18 16 20z" />
    <glyph glyph-name="l" unicode="l" 
d="M62 968q12 12 20 12q7 0 19 -12q10 -11 10 -96q0 -62 -3 -224q-4 -292 -4 -352q0 -146 5 -154h1q6 0 30 24q34 36 71 36q9 0 18 -3q14 -5 46 -37l31 -31v52q0 53 10 57q2 1 7 1q16 0 22 -75q6 -73 19 -126q9 -45 9 -56q0 -9 -5 -14t-10 -5q-14 0 -55 81q-27 53 -53 85.5
t-42 32.5q-27 0 -58.5 -48.5t-31.5 -89.5q0 -49 -22 -49h-4l-17 2l-4 81q-5 103 -10 383t-6 310q-2 71 -2 148q0 58 9 67z" />
    <glyph glyph-name="m" unicode="m" horiz-adv-x="507" 
d="M121 966q10 16 30 16q19 0 25 -15q5 -14 20 -106q15 -93 19 -100q2 -2 3 -2q13 0 34 134q11 72 16 81q6 7 16 7q19 0 33 -19q15 -19 24 -127q14 -156 23 -321q9 -170 71 -464q15 -70 15 -88q0 -6 -2 -10q-6 -8 -12 -8q-14 0 -29.5 58.5t-45.5 219.5q-31 165 -38.5 215
t-17.5 161q-13 147 -18 152h-1q-6 0 -16 -43q-11 -47 -17.5 -58t-25.5 -15q-4 -1 -11 -1q-15 0 -24 13.5t-20 49.5q-11 40 -19 40q-3 0 -3 -9q0 -8 -9 -93q-21 -185 -30 -405q-6 -176 -14 -227q-5 -37 -9 -47t-14 -11h-5q-13 0 -13 22q0 18 4 43q6 42 14 315t11 304
q18 222 23.5 274.5t12.5 63.5z" />
    <glyph glyph-name="n" unicode="n" 
d="M79 999q8 7 18 7q23 0 52 -59q29 -56 56 -101.5t32 -45.5q4 0 4 15q0 10 -1 16q-1 8 -2 22.5t-3 36t-3 33.5q-2 38 -2 42q0 21 11 31q13 11 22 11q31 0 31 -85q0 -54 11 -207t12 -191q3 -69 22.5 -245.5t31.5 -241.5q3 -15 3 -24q0 -24 -19 -24q-12 0 -19.5 37t-30.5 201
q-36 255 -43 362q-7 91 -12 94q-9 6 -39.5 47t-53.5 80l-35 56l-4 -22q-18 -88 -22 -565q-2 -271 -6 -279q-5 -12 -18 -10q-14 2 -17 226q-3 167 -3 304q0 457 27 479z" />
    <glyph glyph-name="o" unicode="o" horiz-adv-x="518" 
d="M282 865q-27 38 -28 38q-97 -97 -108 -105l-23 -17l11 -83q7 -49 29.5 -191t30.5 -204q9 -75 23 -149.5t19 -74.5q10 0 66 329q24 147 35 195t37 112q15 43 15 49l-1 3q-6 4 -42 31q-35 26 -64 67zM208 968q6 14 10.5 22.5t14.5 16t23 7.5t20.5 -9t27.5 -50
q49 -95 123 -136q36 -21 36 -36q0 -16 -28 -79q-28 -61 -52 -148q-14 -51 -50 -222.5t-51 -254.5q-9 -53 -17.5 -71.5t-24.5 -18.5q-3 0 -13 2q-15 4 -22 29q-25 91 -50 258q-11 76 -38 208q-8 35 -60 302q-3 19 8 27q74 60 101 89t42 64z" />
    <glyph glyph-name="p" unicode="p" horiz-adv-x="415" 
d="M190 750q-15 8 -45 35l-23 22l-4 -25q-4 -20 -4 -81q0 -90 6 -90q4 0 28 38q18 31 43 62l20 26zM69 992q15 16 28 16q25 0 39 -62q8 -39 31 -83q34 -62 73 -62q21 0 48 15q26 16 44 16q12 0 20 -8q7 -7 7 -14q0 -17 -54 -65q-45 -41 -77 -83t-80 -121l-41 -68v-244
q0 -244 -10 -253q-10 -8 -13 -8q-10 0 -12.5 44t-5.5 231q-1 87 -4.5 282.5t-3.5 217.5l-4 232z" />
    <glyph glyph-name="q" unicode="q" horiz-adv-x="556" 
d="M271 829q-11 23 -16 23q-7 -3 -42 -42q-34 -36 -65 -60l-25 -20l12 -90q8 -61 30 -201.5t29 -190.5q9 -68 23 -142.5t19 -74.5q12 0 68 326q19 114 27 147q3 13 -6 22q-2 2 -6 2q-6 0 -18 -28q-16 -41 -35 -68.5t-30 -27.5q-16 0 -16 13q0 11 16 49q23 53 34 94
q13 52 19 60q6 11 19 11t29 -14l14 -13l42 108l-18 13q-26 18 -60.5 52.5t-43.5 51.5zM231 954q13 15 24 15q19 0 52 -69q19 -38 54 -76t69 -57q21 -11 28.5 -18t7.5 -18q0 -15 -27 -72q-29 -62 -43 -103q-7 -20 -7 -32q0 -11 13 -46q17 -50 21 -50q7 0 9 94q5 105 12 125
q6 16 11.5 21t19.5 7h8q18 0 18 -23q0 -16 -8 -62q-12 -74 -14 -176q-3 -95 -6 -117.5t-15 -22.5q-1 0 -3 0.5t-4 0.5q-12 1 -19.5 13.5t-29.5 65.5q-33 76 -36 76q-4 0 -26.5 -113.5t-47 -234.5t-31.5 -134q-5 -11 -19 -11q-13 0 -22 8q-11 8 -29.5 89.5t-32.5 187.5
q-22 159 -50 269q-1 4 -51 245q-4 16 8 27q74 60 101 89t42 64q11 26 23 38z" />
    <glyph glyph-name="r" unicode="r" horiz-adv-x="459" 
d="M200 720q-3 0 -38 27t-38 27t-3 -92t5 -87l8 11q7 11 18.5 27t22.5 33t18.5 31.5t7.5 19.5q0 3 -1 3zM74 981q11 7 30 7q28 0 39 -69q5 -31 27.5 -71.5t41.5 -53.5q15 -11 32 -11q20 0 58 21q21 12 35 12q24 0 24 -29q0 -12 -9.5 -24t-40.5 -39q-36 -32 -67.5 -68
t-31.5 -45q0 -6 19 -2q3 1 10 1q26 0 51.5 -25t38.5 -63q20 -57 37 -254q16 -170 26 -226q9 -63 9 -76q0 -10 -12 -10q-17 0 -23 14q-15 39 -33 210q-28 279 -59 335q-16 30 -38 30q-28 0 -87 -53l-38 -34v-213q0 -211 -4 -253q-4 -28 -6.5 -33.5t-13.5 -5.5h-17l-3 266
q-7 325 -12 494q-4 158 -4 172q0 53 4.5 71t16.5 25z" />
    <glyph glyph-name="s" unicode="s" horiz-adv-x="539" 
d="M219 948q14 14 23 14q14 0 40 -39q39 -56 92 -84q34 -19 34 -39q0 -9 -7 -17q-8 -8 -21 -8q-42 0 -95 47q-25 23 -32 23q-6 0 -56 -37l-50 -38l18 -14q51 -42 133 -42q68 0 120 31q26 15 41 15q11 0 18 -7t7 -17q0 -17 -18 -54q-25 -54 -42 -128.5t-42 -243.5
q-36 -242 -49.5 -308t-27.5 -66q-6 0 -16 8q-9 7 -67.5 208.5t-86.5 320.5q-16 72 -16 88q0 14 6 19t20 5q16 0 22.5 -14t15.5 -70q18 -112 61.5 -283t52.5 -171q4 0 23.5 135t28.5 222q19 178 33 218q10 36 10 38q0 1 -4 1q-24 0 -53 -5q-28 -4 -48 -4t-48 7
q-86 23 -144 72q-23 19 -30.5 28.5t-7.5 21.5q0 20 20 30q84 46 118 78q15 15 15 25q0 4 -1 6t-1 7q0 10 11 21z" />
    <glyph glyph-name="t" unicode="t" horiz-adv-x="396" 
d="M182 140q0 114 -7 282t-7 278v158l-18 13q-16 12 -24 12q-9 0 -9 -33q0 -29 -6.5 -39.5t-23.5 -10.5q-16 0 -21.5 16.5t-8.5 72.5q-1 15 -1 37q0 31 7.5 40t29.5 9q21 0 92 -52q70 -52 75 -52q4 0 13 44q10 48 17 59q9 14 25 14q17 0 24 -15q3 -7 3 -18q0 -17 -6 -51
q-11 -55 -11 -75q0 -21 -12 -37l-13 -15l-33 17q-21 12 -33 12q-3 0 -3 -1q-4 -6 -6 -402q0 -96 -1 -199t-1.5 -161.5t-0.5 -61.5q-2 -29 -18 -29q-7 0 -13 5q-9 8 -9 183z" />
    <glyph glyph-name="u" unicode="u" horiz-adv-x="377" 
d="M54 919q11 19 29 19q8 0 16 -5q5 -3 7 -10.5t3.5 -38t1.5 -97.5q0 -21 -2 -303l-1 -440l18 18q20 18 49 18q42 0 79 -32q11 -11 16 -4q2 2 2 51q0 40 -4 208q-7 271 -7 433q0 155 5 175q5 23 28 23q7 0 17 -5l14 -7l-6 -219q-6 -240 -6 -478v-55q0 -129 -3 -169t-14 -40
q-8 0 -37 29q-53 50 -84 50q-11 0 -34 -24t-35 -47q-9 -18 -22 -18h-3q-9 1 -11 11q-4 17 -5 169q-3 327 -7 478q-5 185 -5 267q0 41 1 43z" />
    <glyph glyph-name="v" unicode="v" horiz-adv-x="417" 
d="M275 980q5 8 18 8q19 0 29 -16t16 -70q5 -52 13 -93q12 -69 12 -80t-9 -18q-11 -8 -17 -8q-7 0 -22 16l-15 16l-4 -18q-9 -46 -27.5 -184.5t-24.5 -208.5q-26 -303 -37 -334q-5 -15 -19 -15q-12 0 -15 12q-15 51 -43 307q-15 138 -36 279q-20 121 -37 351q0 3 -0.5 7.5
t-0.5 6.5q0 19 7 30q10 13 27 13q13 0 19 -8q5 -5 14 -115q16 -230 36 -448.5t26 -224.5q1 -1 2 -1q7 0 18 148q3 38 8.5 117t7.5 101q10 134 28 276.5t26 153.5z" />
    <glyph glyph-name="w" unicode="w" horiz-adv-x="556" 
d="M66 971q9 10 21 10q15 0 24 -14q13 -23 39 -424q8 -107 21 -225.5t17 -118.5q3 0 8 44q4 56 15.5 169t16.5 180q14 195 22 255t20 71q14 11 22 11q9 0 19.5 -13.5t33.5 -53.5q22 -39 22 -56q0 -12 -10 -20q-10 -7 -28 -1q-19 7 -23 3q-2 -2 -2 -25q0 -132 41 -481
q16 -130 16 -139q1 -4 2 -4t4 5q4 7 10 68q3 41 14 130q23 186 32 380q9 196 24 235q9 23 29 23q21 0 25 -22q1 -2 1 -11q0 -26 -11 -112q-11 -77 -11 -110v-5q1 -2 1 -10q0 -33 -33 -249q-21 -152 -38 -310q-14 -153 -20 -162q-5 -7 -19 -7q-15 0 -21 8q-10 11 -38 239
q-32 261 -41 261h-1q-9 -9 -42 -313q-16 -145 -21.5 -171.5t-20.5 -26.5t-20 22t-16 128q-6 70 -30 263.5t-44 356.5t-20 191q0 23 10 31z" />
    <glyph glyph-name="x" unicode="x" horiz-adv-x="450" 
d="M206 637q2 0 18 76.5t35 161t28 99.5q8 14 21 14q12 0 22.5 -12.5t14.5 -33.5q1 -4 10.5 -35t16.5 -59.5t7 -42.5q0 -13 -5 -17.5t-19 -4.5t-20 4t-10 19q-8 23 -13 23t-23 -75q-51 -225 -51 -246q0 -19 34 -139.5t73 -237.5q48 -148 48 -160q0 -18 -14 -18q-7 0 -13 6
q-9 8 -46 116t-69 219t-35 114l-1 1q-5 0 -26 -109q-21 -110 -48.5 -219.5t-35.5 -117.5q-9 -11 -20 0q-5 5 -5 15q0 16 27 138q23 102 57 266l24 124l-27 87q-105 345 -105 363q0 10 8 17t20 7h6q9 -1 15.5 -13t19.5 -51q15 -47 48 -170q29 -109 33 -109z" />
    <glyph glyph-name="y" unicode="y" horiz-adv-x="376" 
d="M271 998q8 9 22 9q16 0 23 -10q4 -4 4 -14q0 -15 -10 -56q-81 -326 -127 -705q-5 -45 -11.5 -94.5t-10.5 -82.5t-5 -38q-5 -36 -21 -36q-5 0 -12 5q-8 6 -8 25q0 22 25 215q38 274 38 314q0 19 -7 28q-12 12 -21 40q-11 30 -52.5 197t-41.5 180t17 21q8 4 14 4
q7 0 14 -10q10 -13 32 -107q6 -25 19.5 -84.5t18.5 -78.5q16 -65 21 -65q4 0 16 70q12 71 34.5 168t28.5 105z" />
    <glyph glyph-name="z" unicode="z" horiz-adv-x="496" 
d="M64 983q10 10 19 10q15 0 47 -24q43 -31 84 -31q23 0 44 7q33 10 46 23q12 12 28 12t23 -12q1 -1 1 -7q0 -23 -41 -191q-46 -182 -46 -196q0 -7 18 -17t29 -10t21 32q18 50 41 50q5 0 7 -1q17 -5 17 -20q0 -17 -24 -65q-29 -57 -37 -59h-3q-18 0 -44 13q-40 17 -42 17
q-4 0 -54 -195t-50 -212q1 -5 19 9q18 16 34 22t45 6q35 0 60 -12t57 -44q29 -29 36 -29h1v1q0 2 0.5 4.5t0.5 5.5q0 18 -3 45q-6 58 -6 119v19q0 48 10 52q9 5 19 -7q6 -7 12 -92.5t7 -168.5v-52l-22 2q-23 1 -36 18q-18 25 -46.5 54.5t-42.5 36.5q-18 9 -46 9
q-49 0 -93 -58q-21 -28 -41 -52q-15 -18 -20 -18q-3 0 -9 6t-6 15q0 19 28 118q43 163 75 316l21 102l-13 9q-15 10 -21 10q-10 0 -10 -15q0 -13 -7.5 -21.5t-19.5 -8.5q-11 0 -18 13.5t-14 49.5q-5 27 -5 34q0 9 5 16q8 9 18 9q11 0 53 -17q35 -14 42 -14h1q2 2 32 134.5
t30 140.5q0 7 -56 7q-61 0 -71 3q-3 1 -6 1q-6 0 -6 -10q0 -2 0.5 -6.5t0.5 -7.5v-9q0 -39 -30 -39q-14 0 -22 14.5t-15 57.5q-8 50 -13 71q-4 16 7 27z" />
    <glyph glyph-name="nbsp" unicode="&#xa0;" horiz-adv-x="250" 
 />
    <glyph glyph-name="agrave" unicode="&#xe0;" horiz-adv-x="494" 
d="M286 547q-25 141 -28 141l-2 -2q-4 -6 -8 -42q-18 -115 -20 -125l-17 -90l15 -12q14 -12 21 -12q10 0 32 23l23 24zM233 980q6 7 16 7q23 0 32 -19q7 -16 29 -181q33 -264 38 -279q3 -7 6 -7t12 9q10 10 25 10q16 0 22 -12q4 -10 4 -14q0 -14 -33 -38q-25 -18 -25 -29
q0 -12 14 -88t31.5 -167t21.5 -118q11 -57 11 -83q0 -2 -1 -4v-2q-6 -10 -18 -8q-10 1 -14 9.5t-9 38.5q-38 202 -67 332l-14 60l-30 -26q-32 -26 -36 -26q-2 0 -19 11.5t-22 11.5h-2q-9 -6 -38 -263q-10 -96 -17.5 -122.5t-21.5 -26.5q-18 0 -18 23q0 7 1 11
q3 11 23.5 195.5t22.5 193.5l4 29l-39 20q-50 27 -50 41q0 4 4 12q6 13 17 13q14 0 40 -16q21 -12 26 -12q8 0 11 11.5t6 45.5q2 21 13 106.5t20.5 163t12.5 110.5q6 70 11 77zM67 1062q10 10 19 10q15 0 34.5 -26.5t50.5 -87.5q25 -50 25 -62q0 -6 -3 -11q-7 -15 -16 -15
q-13 0 -43 56q-22 41 -49 72q-28 32 -28 46q0 8 10 18z" />
    <glyph glyph-name="aacute" unicode="&#xe1;" horiz-adv-x="523" 
d="M255 633q-4 37 -10 37t-10 -37q-5 -33 -20 -119q-14 -76 -14 -89q0 -7 2 -11.5t4 -6t9 -6.5q12 -7 15 -7q6 0 27 17q11 9 15 13t7.5 11.5t3.5 18.5t-12 76q-16 96 -17 103zM235 332q-3 0 -21 13t-21 13q-12 0 -40 -259q-15 -131 -19 -141q-7 -15 -22 -15q-12 0 -12 10
q0 28 16.5 184.5t25.5 213.5q4 38 4 41q0 2 -39 24q-49 28 -49 43q0 4 1 6q6 14 20 14q15 0 38 -13q28 -15 34 -15h1q2 2 15 109q6 42 15 103t14 102.5t10 101.5q5 88 14 99q8 9 22 9t22 -9q8 -10 17 -83q35 -256 43 -330q7 -61 10 -64q2 -2 24 9q16 9 27 9q16 0 16 -14
q0 -20 -30 -47l-29 -26l26 -139q56 -289 56 -327q0 -4 -1 -5q-3 -6 -12 -6q-18 0 -23 15q-3 9 -19 99q-10 60 -38 193t-31 133t-31 -24q-29 -27 -34 -27zM398 995q22 39 42 39q9 0 18 -9q8 -8 8 -17q0 -16 -24 -46q-22 -25 -48 -75q-14 -28 -21.5 -36.5t-17.5 -8.5
q-18 0 -18 18q0 33 61 135z" />
    <glyph glyph-name="acircumflex" unicode="&#xe2;" horiz-adv-x="478" 
d="M253 619q-4 41 -10 41q-5 0 -10 -38q-5 -36 -20 -121q-15 -84 -15 -91q2 -11 16 -22l17 -11q19 17 55 53l-14 76q-10 51 -19 113zM217 952q7 9 23 9q14 0 22 -8q7 -9 20 -109q8 -54 23 -169t20 -151q4 -45 13 -45q4 0 13 6q12 8 25 8q21 0 21 -21q0 -14 -27 -38l-30 -27
l23 -120q57 -297 57 -343q0 -14 -14 -14q-16 0 -20 15q-2 6 -22 115q-13 77 -38 194t-29 117t-27 -21q-25 -23 -38 -23q-11 0 -27 13l-17 13l-8 -41q-6 -35 -25 -190q-15 -133 -20.5 -161t-17.5 -30q-3 -1 -7 -1q-14 0 -14 25q0 18 4 45q4 28 20 167.5t20 171.5q4 30 4 33
q0 11 -6 14q-1 1 -8.5 5t-17.5 10t-18 11q-36 21 -36 36q0 10 12 17q4 3 9 3q7 0 35 -14q28 -16 35 -16h1q1 1 18 132q7 56 15 106.5t12.5 86t8.5 96.5q5 83 13 93zM183 1103l22 48l30 -2q22 -1 28.5 -6.5t20.5 -29.5q19 -37 50 -69q32 -35 32 -49q0 -8 -9 -11q-2 -1 -5 -1
q-22 0 -76 60q-33 39 -35 39q-3 0 -41 -49q-34 -42 -48.5 -56t-25.5 -14h-4q-14 3 -14 16q0 20 25 46q27 31 50 78z" />
    <glyph glyph-name="atilde" unicode="&#xe3;" horiz-adv-x="479" 
d="M268 521q-3 19 -8 48.5t-8.5 47.5t-4.5 24l-6 26l-4 -23q-12 -72 -23 -132l-20 -110l14 -12q13 -11 20 -11q8 0 32 24l25 25zM222 953q13 9 19 9q9 0 19.5 -13t10.5 -24q0 -4 2 -18t5.5 -40.5t5.5 -45.5q5 -38 14 -104t18 -134t11 -87l3 -28l22 14q16 10 24 10q4 0 12 -4
q12 -6 12 -16q0 -15 -29 -39q-2 -2 -7 -6t-6.5 -5t-4.5 -4t-4 -5t-2.5 -5.5t-2 -7t-0.5 -8.5q0 -11 21 -124q4 -22 37 -204q17 -95 17 -113q0 -12 -7 -19q-6 -6 -10 -6q-9 0 -18 30.5t-24 116.5q-13 76 -27.5 143.5t-25 106.5t-14.5 40h-1q-6 0 -27 -21q-21 -22 -33 -22
q-9 0 -24 12q-17 13 -22 6q-9 -14 -31 -213q-15 -129 -22 -164t-19 -35q-1 0 -9 2q-8 3 -8 33q0 37 15 154q28 234 28 256q0 11 -2 11q-8 3 -42 24q-38 23 -38 40q0 8 9 16q7 5 11 5q10 0 32 -14q26 -14 34 -14q2 0 3 1q6 4 11 47q2 15 14 106.5t21 169.5t11 110
q2 45 5.5 59.5t12.5 20.5zM88 1145q5 5 13 5q20 0 63 -32q31 -24 100 -61t82 -37q7 0 11 14.5t9 57.5q5 36 11.5 47t24.5 11h20l-5 -34q-6 -38 -6 -102q-1 -43 -2.5 -56.5t-8.5 -17.5q-4 -2 -6 -2q-18 0 -127 56q-29 15 -60.5 31t-48 24.5t-17.5 8.5t-3 -4.5t-3.5 -14
t-2.5 -20.5q-9 -83 -35 -83q-24 0 -24 23q0 7 3 16q7 21 7 94t5 76z" />
    <glyph glyph-name="ccedilla" unicode="&#xe7;" horiz-adv-x="491" 
d="M222 993q8 8 17 8q20 0 57 -49q32 -42 77 -89q42 -44 42 -51q0 -10 -12 -21t-23 -11t-39 24.5t-60 62.5l-27 32l-18 -35q-28 -52 -79 -123q-3 -5 -3 -18q0 -29 15 -130q21 -133 29 -133h2q35 15 46 15q3 0 9 -2q11 -5 11 -24q0 -20 -33 -50q-30 -29 -30 -42q0 -2 2 -12
q18 -107 55 -288q6 -25 8 -25t5 8q16 43 61 354q23 157 32.5 208.5t19.5 61.5q10 12 22 12t23 -12q5 -5 5 -16q0 -25 -50 -268q-54 -266 -69 -349q-10 -59 -21 -80t-30 -21h-6q-11 0 -17.5 23.5t-40.5 175.5q-11 47 -17 74q-23 105 -30 112h-1q-6 0 -28.5 -23.5t-22.5 -30.5
q0 -4 -15.5 -11.5t-22.5 -7.5t-7 7q0 17 42 80l43 64l-13 65q-19 99 -27 150q-14 85 -20 96q-6 10 -6 21q0 16 15 34q35 42 78.5 119t43.5 96q0 11 8 19z" />
    <glyph glyph-name="eacute" unicode="&#xe9;" horiz-adv-x="584" 
d="M184 965q0 14 8.5 25t22.5 11q11 0 21 -8.5t30 -35.5q31 -43 77 -91q40 -41 40 -52q0 -5 -3 -11q-7 -16 -22 -16q-32 0 -95 76q-29 34 -34 34q-6 0 -23 -34q-15 -28 -36 -62q-19 -28 -17 -30t96 -9q91 -7 101 -15t10 -22q0 -16 -8 -21.5t-37 -5.5q-32 0 -80 4
q-70 5 -98 5q-10 0 -10 -1q-4 -2 11 -99q9 -72 24 -171q7 -55 40.5 -226t37.5 -175q1 -1 2.5 -1t2.5 1q4 4 27.5 134t38.5 225q35 234 43 256q7 24 26 24q10 0 19 -9q8 -8 8 -18q0 -12 -19 -104q-5 -23 -13 -62t-13.5 -68t-8.5 -45q-58 -313 -70.5 -368t-23.5 -59h-1
q-9 -4 -18 -4q-18 0 -25 18q-3 8 -38 170q-75 349 -97 480q-4 23 -9.5 54.5t-9 49t-4.5 21.5q0 1 -0.5 3t-0.5 3q0 15 37 64q30 40 60.5 95.5t30.5 69.5zM461 1025q23 35 42 35q12 0 19 -13q5 -10 5 -15q0 -9 -29 -48q-30 -37 -49 -79q-19 -41 -34 -41q-8 0 -16 10
q-3 3 -3 10q0 36 65 141z" />
    <glyph glyph-name="ecircumflex" unicode="&#xea;" horiz-adv-x="465" 
d="M195 980q10 15 21 15q19 0 50 -44q32 -45 76 -91q42 -43 42 -58q0 -1 -0.5 -2.5t-0.5 -2.5q-6 -21 -26 -21q-9 0 -16 4q-19 12 -62 59q-47 51 -52 51l-19 -35q-11 -22 -36 -62q-16 -23 -16 -26t11 -5q3 0 17.5 -1.5t37.5 -4t43 -4.5q52 -4 69 -8t22 -13q9 -13 3 -27
q-6 -15 -45 -15q-30 0 -107 6q-21 2 -56 2q-19 0 -20 -1t-1 -8q0 -20 6 -57q4 -30 25 -181q12 -87 43 -247.5t39 -174.5h1q5 0 27 116.5t43 256.5q24 160 34 206t22 54q6 5 12 5q7 0 16 -8q13 -10 13 -20q0 -3 -7 -40q-48 -229 -77 -386q-39 -209 -49.5 -244.5t-34.5 -38.5
q-16 -1 -24 14q-8 14 -41 172q-70 336 -94 467q-22 124 -27 141q-1 3 -1 9q0 14 22 40q35 43 73 106.5t38 79.5l-1 1v2q-3 4 7 19zM200 1129q5 7 26 7h6q19 -1 25.5 -6.5t18.5 -28.5q21 -38 54 -74q31 -34 31 -49q0 -10 -18 -10q-25 0 -74 61q-30 37 -34 37t-37 -44
q-53 -72 -75 -72h-4q-16 1 -16 13q0 15 27 49q30 35 47 73q4 7 9.5 18t9 17.5t4.5 8.5z" />
    <glyph glyph-name="iacute" unicode="&#xed;" horiz-adv-x="257" 
d="M61 813q10 12 27 12q13 0 22 -10q4 -4 5 -6t2 -18t1 -49q0 -26 -5 -413q-5 -389 -10 -394t-11 -5q-16 0 -23 23q-3 10 -3 73q0 42 1 64q0 6 0.5 24.5t0.5 31.5q0 147 -8 358q-7 186 -7 249q0 50 8 60zM146 1074q9 11 26 11q12 0 20 -8q9 -9 9 -21q0 -23 -31 -57
q-29 -33 -49 -74q-19 -40 -32 -40h-2q-21 3 -21 18q0 17 33 83q39 79 47 88z" />
    <glyph glyph-name="ograve" unicode="&#xf2;" horiz-adv-x="583" 
d="M346 800q-29 38 -30 38q-5 0 -50 -47q-51 -51 -64 -60l-18 -12l14 -95q54 -350 59 -389q11 -89 27 -168l14 -62l15 62q14 60 47 259q28 165 39.5 215.5t32.5 101.5q19 51 19 55q0 6 -39 36q-45 34 -66 66zM294 944q10 12 27 10q10 -1 18 -11.5t27 -47.5q46 -93 121 -135
q34 -19 41 -30q1 -2 1 -6q0 -11 -38 -96q-50 -115 -82 -286q-20 -108 -52 -256.5t-37 -154.5q-5 -5 -17 -5q-19 0 -28 9q-6 6 -24.5 97t-33.5 189q-19 129 -48 251q-15 69 -29 146q-12 75 -20 97q-4 8 -4 17q0 18 30 38q32 22 69 60.5t51 66.5q21 40 28 47zM65 1072
q10 12 22 12q21 0 34 -36q17 -59 56 -110q13 -18 13 -31q0 -15 -17 -15q-11 0 -22 9q-13 11 -43 57t-42 74q-9 21 -9 26q0 4 8 14z" />
    <glyph glyph-name="oacute" unicode="&#xf3;" horiz-adv-x="597" 
d="M294 772q-6 8 -17.5 23t-14.5 19q-6 7 -9 7q-5 0 -23 -23q-19 -26 -63 -60q-40 -31 -42 -43q0 -35 46 -304q7 -40 22 -159q7 -66 21.5 -142t21.5 -88q5 -8 6 2q0 12 13 66q19 82 49 266q24 140 34.5 188.5t26.5 90.5q26 67 26 68q0 2 -37 32q-40 31 -60 57zM231 928
q7 9 27 7q14 -2 21.5 -10.5t24.5 -43.5q22 -44 60 -86.5t69 -57.5q18 -8 25.5 -14.5t7.5 -17.5q0 -14 -21 -59q-38 -82 -61.5 -167.5t-67.5 -308.5q-41 -213 -52 -239q-8 -21 -26 -21q-15 0 -24 16q-9 13 -26 95t-30 172q-14 93 -42.5 224t-38.5 187q-9 57 -20 105
q-1 3 -1 7q0 12 38 43q84 67 113 126q15 32 24 43zM489 1038q14 14 23 14q8 0 18 -10t10 -18q0 -11 -28 -48q-35 -46 -49 -77q-20 -40 -26 -44q-2 -2 -8 -2q-8 0 -13 7.5t-5 18.5q0 16 31 79t47 80z" />
    <glyph glyph-name="ocircumflex" unicode="&#xf4;" horiz-adv-x="521" 
d="M288 802q-31 44 -36 44t-17 -20q-16 -23 -64 -63q-45 -36 -45 -48q0 -11 17 -125t25 -156q11 -60 26 -181q24 -183 40 -226q0 -2 1 -2q14 0 66 314q29 173 37.5 212t32.5 98q18 47 18 58q0 6 -5 9q-21 12 -52 40t-44 46zM203 901q29 61 54 61q9 0 15 -5q9 -7 35 -59
q46 -94 126 -137q33 -17 33 -29q0 -17 -29 -82q-52 -114 -107 -389q-59 -301 -69 -320q-6 -9 -17 -9q-21 0 -31 14q-7 9 -27.5 112t-33.5 197q-9 61 -39.5 201t-38.5 188q-3 17 -7 38.5t-6.5 35t-3.5 17.5q-1 3 -1 8q0 13 35 38q86 65 112 120zM231 1114q6 5 20 5
q21 0 29 -11q6 -8 20 -45q15 -40 40 -77q22 -32 22 -46q0 -10 -12 -15q-2 -1 -5 -1q-20 0 -64 69l-30 47l-35 -54q-34 -54 -52 -55h-6q-15 0 -15 11q0 15 22 47q23 34 39 77q15 39 27 48z" />
    <glyph glyph-name="otilde" unicode="&#xf5;" horiz-adv-x="522" 
d="M274 820q-15 26 -18 24q-4 0 -49 -47q-45 -46 -64 -60l-18 -13l8 -61q8 -64 29 -191q15 -92 35 -238q22 -187 39 -208h1q13 0 71 348q20 120 31 169.5t28 93.5l26 69l-18 13q-28 21 -59.5 52t-41.5 49zM238 952q12 9 20 9q10 0 20.5 -14.5t29.5 -52.5q42 -84 116 -127
q43 -23 43 -38t-26 -72q-31 -66 -56 -159t-65 -293q-45 -231 -55 -253q-9 -21 -24 -21q-9 0 -20 8q-22 16 -63 275q-16 105 -40 214t-37 182q-18 99 -24 120q-1 3 -1 8q0 10 12 21q75 60 100 87.5t43 66.5q12 28 27 39zM396 1140q10 10 17 10q13 0 13 -74v-36
q0 -21 -0.5 -46.5t-0.5 -38.5v-14q0 -3 -13 -12q-1 -1 -5 -1q-23 0 -98 37t-112 58q-35 20 -43 20h-1q-5 -2 -9 -43q-8 -74 -37 -74q-9 0 -12 3t-3 13v10q1 12 3 104l2 78l19 6q9 3 14 3q6 0 15 -10q19 -24 100.5 -71t108.5 -50h5q7 0 9.5 6.5t4.5 27.5q8 79 23 94z" />
    <glyph glyph-name="uacute" unicode="&#xfa;" horiz-adv-x="374" 
d="M67 940q12 5 18 5q14 0 21 -16q6 -12 6 -131q0 -138 -7 -405q-4 -156 -4 -280q0 -48 1 -50q2 -5 3 -6.5t4 -1t5.5 3l9.5 9.5q17 17 43 17q27 0 62 -19q33 -19 38 -19q1 24 1 61q0 89 -2 145q-10 526 -10 608q0 42 2 52q8 27 33 27q7 0 15 -3l16 -8l-5 -161
q-4 -115 -6 -478q-1 -272 -7 -303q-4 -19 -12 -19q-5 0 -36 29q-53 50 -80 50q-23 0 -48 -34q-26 -33 -30 -46q-4 -12 -19 -10l-15 2l-6 312q-2 137 -6 486l-1 175zM249 1137q13 13 26 13t22 -14q9 -12 9 -20q0 -13 -30 -46q-34 -39 -66 -108q-6 -10 -20 -10q-18 0 -18 17
t31 85t46 83z" />
  </font>
</defs>
</svg>
